<svg width="373" height="361" viewBox="0 0 373 361" fill="none" xmlns="http://www.w3.org/2000/svg">
<path d="M25.7739 212.193H26.9286C28.1963 212.046 29.4219 211.648 30.5343 211.023C31.6467 210.398 32.6235 209.559 33.408 208.553C34.1925 207.547 34.7689 206.396 35.1037 205.165C35.4386 203.935 35.5251 202.65 35.3584 201.386C31.6421 169.963 37.3331 138.144 51.7121 109.952C66.091 81.7596 88.5124 58.4591 116.142 42.9954C143.772 27.5317 175.37 20.5991 206.943 23.0738C238.515 25.5485 268.645 37.3194 293.523 56.8987C310.086 69.8634 323.911 85.9814 334.199 104.32C344.486 122.658 351.031 142.853 353.455 163.736C353.604 164.998 354 166.219 354.622 167.329C355.243 168.438 356.077 169.414 357.076 170.202C358.075 170.989 359.22 171.572 360.444 171.918C361.669 172.263 362.949 172.365 364.213 172.216C365.477 172.067 366.699 171.67 367.809 171.05C368.92 170.429 369.897 169.596 370.685 168.597C371.473 167.599 372.057 166.456 372.403 165.232C372.748 164.009 372.85 162.729 372.701 161.467C367.086 114.257 342.931 71.2096 305.549 41.7942C268.168 12.3788 220.622 -0.995062 173.371 4.6148C126.12 10.2247 83.0349 34.3587 53.5938 71.7076C24.1526 109.057 10.7671 156.561 16.3819 203.771C16.6691 206.069 17.7774 208.187 19.5031 209.735C21.2287 211.282 23.4555 212.155 25.7739 212.193Z" fill="#265169" fill-opacity="0.03"/>
<path d="M161.111 358.373C163.393 359.507 166.033 359.691 168.45 358.884C170.868 358.076 172.866 356.343 174.006 354.065C200.652 300.691 211.063 240.686 203.953 181.465C203.651 178.915 202.349 176.589 200.331 174.999C198.314 173.408 195.746 172.684 193.194 172.985C190.642 173.286 188.314 174.587 186.722 176.603C185.13 178.619 184.405 181.184 184.707 183.734C191.372 239.233 181.617 295.468 156.646 345.489C156.089 346.627 155.763 347.864 155.686 349.129C155.609 350.394 155.783 351.661 156.198 352.858C156.613 354.056 157.26 355.159 158.104 356.105C158.947 357.052 159.969 357.822 161.111 358.373Z" fill="#265169" fill-opacity="0.03"/>
<path d="M313.616 310.877C314.865 311.122 316.15 311.116 317.398 310.862C318.645 310.607 319.829 310.107 320.881 309.392C321.934 308.676 322.834 307.759 323.529 306.694C324.225 305.629 324.702 304.436 324.932 303.185C333.995 258.137 335.827 211.935 330.36 166.312C327.528 142.809 318.642 120.441 304.57 101.395C303.812 100.385 302.862 99.5338 301.775 98.8905C300.687 98.2473 299.484 97.8243 298.233 97.6457C296.982 97.4671 295.708 97.5365 294.484 97.8499C293.259 98.1632 292.109 98.7144 291.098 99.472C290.087 100.23 289.235 101.179 288.592 102.265C287.948 103.352 287.524 104.554 287.346 105.804C287.167 107.054 287.236 108.327 287.55 109.55C287.864 110.773 288.415 111.922 289.173 112.932C301.316 129.355 308.97 148.653 311.383 168.927C316.6 212.513 314.845 256.65 306.187 299.685C305.719 302.15 306.234 304.701 307.622 306.792C309.01 308.883 311.161 310.349 313.616 310.877Z" fill="#265169" fill-opacity="0.03"/>
<path d="M52.9106 290.609C54.0808 291.087 55.3336 291.329 56.5976 291.323C57.8616 291.316 59.1119 291.061 60.2772 290.572C61.4425 290.083 62.4999 289.369 63.389 288.471C64.278 287.574 64.9814 286.51 65.4589 285.34C76.9413 257.212 81.0868 226.631 77.5069 196.464C74.9784 175.159 78.3306 153.57 87.2008 134.032C96.0709 114.495 110.121 97.7539 127.83 85.6215C145.539 73.4892 166.232 66.4278 187.669 65.2018C209.106 63.9758 230.471 68.6319 249.45 78.6661C251.706 79.8595 254.344 80.1085 256.784 79.3584C259.224 78.6083 261.266 76.9206 262.46 74.6664C263.654 72.4123 263.904 69.7764 263.153 67.3386C262.402 64.9009 260.713 62.8609 258.457 61.6676C236.371 49.9655 211.501 44.5265 186.542 45.94C161.583 47.3536 137.487 55.5658 116.867 69.6865C96.2462 83.8072 79.8873 103.298 69.5633 126.046C59.2392 148.793 55.3439 173.931 58.2994 198.733C61.4887 225.664 57.7802 252.964 47.5217 278.072C47.047 279.248 46.81 280.507 46.8242 281.775C46.8384 283.043 47.1035 284.296 47.6044 285.461C48.1053 286.627 48.832 287.681 49.7427 288.565C50.6534 289.448 51.73 290.143 52.9106 290.609Z" fill="#265169" fill-opacity="0.03"/>
<path d="M207.648 360.218C209.986 361.223 212.627 361.261 214.994 360.324C217.36 359.387 219.258 357.551 220.273 355.219C244.435 298.945 253.343 237.308 246.101 176.504C245.357 169.668 243.264 163.047 239.943 157.024C236.623 151.001 232.14 145.696 226.755 141.414C221.37 137.133 215.188 133.96 208.569 132.08C201.949 130.199 195.021 129.649 188.187 130.459C181.353 131.27 174.747 133.426 168.752 136.803C162.757 140.179 157.491 144.71 153.259 150.132C149.027 155.554 145.912 161.761 144.095 168.393C142.278 175.026 141.795 181.952 142.674 188.772C144.12 201.035 144.648 213.389 144.252 225.73C144.17 228.28 145.106 230.758 146.852 232.619C148.599 234.48 151.015 235.571 153.567 235.652C156.119 235.734 158.599 234.799 160.461 233.054C162.324 231.309 163.416 228.895 163.498 226.345C163.929 213.041 163.363 199.723 161.804 186.503C161.221 182.188 161.504 177.801 162.636 173.596C163.768 169.392 165.726 165.455 168.396 162.014C171.066 158.574 174.395 155.699 178.189 153.557C181.983 151.415 186.165 150.049 190.493 149.538C194.82 149.028 199.206 149.383 203.395 150.583C207.584 151.784 211.491 153.805 214.89 156.53C218.289 159.254 221.111 162.628 223.192 166.453C225.272 170.279 226.57 174.48 227.009 178.811C233.826 236.215 225.409 294.4 202.605 347.527C202.097 348.691 201.824 349.943 201.802 351.212C201.781 352.482 202.011 353.743 202.48 354.923C202.949 356.102 203.647 357.178 204.534 358.087C205.421 358.996 206.479 359.72 207.648 360.218Z" fill="#265169" fill-opacity="0.03"/>
<path d="M119.655 345.566C121.893 346.772 124.517 347.044 126.954 346.324C129.392 345.603 131.445 343.948 132.666 341.72C142.295 323.651 149.788 304.524 154.991 284.725C155.639 282.257 155.28 279.632 153.991 277.429C152.702 275.225 150.591 273.624 148.12 272.976C145.65 272.328 143.023 272.688 140.818 273.975C138.612 275.263 137.009 277.373 136.361 279.841C131.533 298.198 124.584 315.931 115.652 332.682C114.494 334.925 114.264 337.533 115.013 339.943C115.762 342.354 117.429 344.373 119.655 345.566Z" fill="#265169" fill-opacity="0.03"/>
<path d="M269.158 174.004C269.507 176.273 270.658 178.343 272.401 179.838C274.145 181.334 276.367 182.156 278.665 182.157H279.935C282.452 181.831 284.738 180.524 286.295 178.521C287.853 176.519 288.555 173.983 288.25 171.466C286.582 157.551 281.84 144.18 274.364 132.322C266.889 120.464 256.868 110.414 245.027 102.902C233.186 95.3888 219.822 90.6005 205.901 88.8833C191.98 87.166 177.851 88.5628 164.537 92.9725C162.112 93.7885 160.112 95.5333 158.975 97.8232C157.838 100.113 157.658 102.761 158.474 105.183C159.291 107.605 161.038 109.604 163.329 110.74C165.621 111.876 168.271 112.056 170.696 111.24C181.31 107.721 192.575 106.607 203.674 107.98C214.773 109.352 225.426 113.176 234.861 119.175C244.297 125.174 252.276 133.196 258.222 142.66C264.168 152.124 267.929 162.791 269.235 173.889L269.158 174.004Z" fill="#265169" fill-opacity="0.03"/>
<path d="M258.765 347.527C261.174 348.281 263.784 348.058 266.03 346.907C268.277 345.756 269.981 343.769 270.774 341.374C282.81 305.366 289.502 267.791 290.636 229.845C290.674 228.583 290.463 227.325 290.014 226.144C289.565 224.963 288.888 223.882 288.022 222.962C287.155 222.043 286.115 221.303 284.962 220.784C283.809 220.266 282.565 219.98 281.302 219.942C280.038 219.904 278.779 220.116 277.597 220.564C276.415 221.012 275.333 221.688 274.413 222.554C273.492 223.42 272.752 224.459 272.233 225.611C271.714 226.763 271.428 228.006 271.39 229.268C270.332 265.381 263.977 301.143 252.529 335.413C252.14 336.617 251.993 337.887 252.096 339.148C252.199 340.41 252.55 341.638 253.129 342.764C253.708 343.889 254.505 344.89 255.472 345.707C256.439 346.524 257.558 347.143 258.765 347.527Z" fill="#265169" fill-opacity="0.03"/>
<path d="M83.6655 323.145C84.79 323.724 86.0178 324.077 87.2786 324.181C88.5395 324.286 89.8087 324.142 91.0135 323.756C92.2184 323.37 93.3353 322.751 94.3003 321.933C95.2653 321.116 96.0594 320.116 96.6373 318.991C116.944 279.752 124.99 235.325 119.732 191.464C117.651 174.025 121.736 156.408 131.28 141.661C132.541 139.526 132.928 136.987 132.36 134.574C131.792 132.161 130.313 130.06 128.232 128.71C126.151 127.36 123.629 126.866 121.191 127.33C118.754 127.794 116.59 129.18 115.152 131.2C103.134 149.691 97.9602 171.796 100.525 193.695C105.35 233.739 98.0285 274.308 79.5084 310.146C78.9224 311.271 78.5651 312.501 78.457 313.765C78.3489 315.029 78.4922 316.302 78.8786 317.51C79.2651 318.718 79.887 319.838 80.7085 320.805C81.5301 321.772 82.5351 322.568 83.6655 323.145Z" fill="#265169" fill-opacity="0.03"/>
<path d="M10.6461 208.831H11.8008C13.0685 208.684 14.2941 208.286 15.4065 207.661C16.5189 207.036 17.4957 206.197 18.2802 205.191C19.0647 204.185 19.6411 203.034 19.9759 201.803C20.3108 200.573 20.3973 199.288 20.2305 198.024C16.5143 166.601 22.2053 134.783 36.5843 106.59C50.9632 78.3978 73.3846 55.0972 101.014 39.6336C128.644 24.1699 160.242 17.2373 191.815 19.712C223.387 22.1867 253.517 33.9576 278.395 53.5369C294.958 66.5016 308.783 82.6196 319.071 100.958C329.358 119.297 335.903 139.491 338.327 160.374C338.476 161.636 338.873 162.857 339.494 163.967C340.115 165.076 340.949 166.053 341.948 166.84C342.947 167.627 344.092 168.211 345.316 168.556C346.541 168.902 347.822 169.003 349.085 168.854C350.349 168.705 351.571 168.309 352.681 167.688C353.792 167.067 354.769 166.234 355.557 165.236C356.345 164.237 356.929 163.094 357.275 161.87C357.621 160.647 357.722 159.367 357.573 158.105C351.958 110.895 327.803 67.8478 290.421 38.4324C253.04 9.01694 205.494 -4.35688 158.243 1.25298C110.992 6.86285 67.9071 30.9969 38.4659 68.3458C9.02482 105.695 -4.36069 153.199 1.25408 200.409C1.54129 202.708 2.64964 204.826 4.37524 206.373C6.10085 207.92 8.32766 208.793 10.6461 208.831Z" fill="#5AB943"/>
<path d="M145.983 355.011C148.265 356.146 150.905 356.329 153.322 355.522C155.74 354.714 157.738 352.981 158.878 350.703C185.524 297.329 195.935 237.324 188.825 178.103C188.524 175.553 187.221 173.227 185.203 171.637C183.186 170.047 180.618 169.322 178.066 169.623C175.514 169.924 173.186 171.225 171.594 173.241C170.003 175.257 169.278 177.822 169.579 180.372C176.244 235.872 166.489 292.106 141.518 342.127C140.961 343.265 140.635 344.502 140.558 345.767C140.481 347.032 140.655 348.299 141.07 349.496C141.485 350.694 142.133 351.797 142.976 352.744C143.819 353.69 144.841 354.46 145.983 355.011Z" fill="#5AB943"/>
<path d="M298.488 307.515C299.737 307.76 301.023 307.755 302.27 307.5C303.517 307.245 304.701 306.745 305.754 306.03C306.806 305.314 307.706 304.397 308.402 303.332C309.097 302.267 309.574 301.074 309.805 299.823C318.867 254.775 320.699 208.574 315.232 162.951C312.401 139.447 303.515 117.079 289.442 98.0331C288.684 97.023 287.734 96.172 286.647 95.5287C285.559 94.8854 284.356 94.4624 283.105 94.2839C281.854 94.1053 280.58 94.1747 279.356 94.4881C278.132 94.8014 276.981 95.3526 275.97 96.1102C274.959 96.8677 274.108 97.8168 273.464 98.9033C272.82 99.9897 272.396 101.192 272.218 102.442C272.039 103.692 272.108 104.965 272.422 106.188C272.736 107.411 273.287 108.56 274.046 109.571C286.188 125.993 293.843 145.291 296.255 165.566C301.472 209.151 299.718 253.288 291.059 296.324C290.591 298.789 291.106 301.339 292.494 303.43C293.882 305.521 296.033 306.987 298.488 307.515Z" fill="#5AB943"/>
<path d="M37.7828 287.247C38.953 287.725 40.2058 287.967 41.4698 287.961C42.7338 287.955 43.9841 287.7 45.1494 287.21C46.3147 286.721 47.3721 286.007 48.2612 285.109C49.1503 284.212 49.8536 283.148 50.3311 281.979C61.8135 253.85 65.959 223.269 62.3791 193.102C59.8506 171.797 63.2029 150.208 72.073 130.671C80.9431 111.133 94.9932 94.3921 112.702 82.2597C130.411 70.1274 151.104 63.066 172.541 61.84C193.979 60.614 215.343 65.2701 234.322 75.3043C236.578 76.4976 239.216 76.7467 241.656 75.9966C244.096 75.2465 246.138 73.5588 247.332 71.3046C248.527 69.0505 248.776 66.4146 248.025 63.9768C247.274 61.5391 245.585 59.4991 243.329 58.3057C221.243 46.6037 196.373 41.1647 171.414 42.5782C146.455 43.9918 122.36 52.204 101.739 66.3247C81.1184 80.4454 64.7595 99.9359 54.4355 122.684C44.1114 145.431 40.2161 170.569 43.1717 195.371C46.3609 222.302 42.6524 249.602 32.3939 274.71C31.9193 275.886 31.6822 277.145 31.6964 278.413C31.7106 279.681 31.9757 280.934 32.4766 282.099C32.9775 283.265 33.7042 284.32 34.6149 285.203C35.5256 286.087 36.6022 286.781 37.7828 287.247Z" fill="#5AB943"/>
<path d="M192.52 356.857C194.858 357.861 197.5 357.899 199.866 356.962C202.232 356.025 204.13 354.189 205.145 351.857C229.307 295.583 238.215 233.946 230.973 173.142C230.229 166.306 228.136 159.685 224.815 153.662C221.495 147.64 217.012 142.334 211.627 138.053C206.242 133.771 200.061 130.598 193.441 128.718C186.821 126.838 179.894 126.287 173.059 127.097C166.225 127.908 159.62 130.064 153.624 133.441C147.629 136.818 142.363 141.348 138.131 146.77C133.899 152.193 130.784 158.399 128.967 165.032C127.15 171.664 126.667 178.59 127.546 185.41C128.992 197.673 129.52 210.027 129.124 222.368C129.042 224.918 129.978 227.396 131.725 229.257C133.472 231.118 135.887 232.209 138.439 232.291C140.991 232.372 143.471 231.437 145.334 229.692C147.196 227.947 148.288 225.534 148.37 222.984C148.801 209.679 148.235 196.361 146.676 183.141C146.094 178.826 146.376 174.439 147.508 170.235C148.64 166.03 150.598 162.093 153.268 158.652C155.939 155.212 159.268 152.337 163.061 150.195C166.855 148.053 171.038 146.687 175.365 146.176C179.693 145.666 184.079 146.021 188.267 147.222C192.456 148.422 196.364 150.443 199.762 153.168C203.161 155.893 205.983 159.266 208.064 163.091C210.144 166.917 211.442 171.118 211.881 175.449C218.698 232.853 210.282 291.039 187.477 344.165C186.969 345.329 186.696 346.581 186.675 347.851C186.653 349.12 186.883 350.381 187.352 351.561C187.821 352.741 188.519 353.816 189.406 354.725C190.293 355.634 191.351 356.359 192.52 356.857Z" fill="#5AB943"/>
<path d="M104.528 342.204C106.765 343.41 109.389 343.682 111.827 342.962C114.264 342.241 116.317 340.586 117.538 338.358C127.168 320.29 134.66 301.163 139.863 281.363C140.511 278.895 140.152 276.27 138.863 274.067C137.575 271.864 135.463 270.262 132.992 269.614C130.522 268.967 127.895 269.326 125.69 270.613C123.484 271.901 121.881 274.011 121.233 276.479C116.405 294.836 109.456 312.569 100.525 329.321C99.3658 331.563 99.1361 334.171 99.8851 336.582C100.634 338.992 102.302 341.011 104.528 342.204Z" fill="#5AB943"/>
<path d="M254.03 170.642C254.379 172.911 255.53 174.981 257.274 176.476C259.017 177.972 261.239 178.794 263.537 178.795H264.808C267.324 178.469 269.61 177.162 271.168 175.16C272.725 173.157 273.427 170.621 273.122 168.104C271.455 154.189 266.712 140.818 259.236 128.96C251.761 117.102 241.74 107.053 229.899 99.5398C218.059 92.027 204.694 87.2387 190.773 85.5215C176.852 83.8042 162.723 85.201 149.409 89.6107C146.985 90.4266 144.984 92.1715 143.847 94.4614C142.71 96.7513 142.53 99.3987 143.347 101.821C144.163 104.244 145.91 106.243 148.202 107.379C150.494 108.515 153.143 108.694 155.568 107.878C166.182 104.359 177.447 103.245 188.546 104.618C199.645 105.99 210.298 109.815 219.734 115.813C229.169 121.812 237.149 129.834 243.094 139.298C249.04 148.762 252.802 159.429 254.107 170.527L254.03 170.642Z" fill="#5AB943"/>
<path d="M243.637 344.166C246.046 344.919 248.656 344.696 250.902 343.545C253.149 342.394 254.853 340.407 255.646 338.012C267.683 302.004 274.374 264.429 275.508 226.483C275.546 225.221 275.335 223.963 274.886 222.782C274.438 221.601 273.761 220.52 272.894 219.6C272.027 218.681 270.987 217.941 269.834 217.423C268.681 216.905 267.438 216.618 266.174 216.58C264.91 216.543 263.651 216.754 262.469 217.202C261.287 217.65 260.205 218.327 259.285 219.193C258.365 220.059 257.624 221.097 257.105 222.249C256.587 223.401 256.3 224.644 256.262 225.907C255.204 262.019 248.849 297.781 237.401 332.051C237.012 333.256 236.865 334.525 236.968 335.786C237.071 337.048 237.422 338.277 238.001 339.402C238.581 340.528 239.377 341.528 240.344 342.345C241.311 343.163 242.43 343.781 243.637 344.166Z" fill="#5AB943"/>
<path d="M68.5377 319.783C69.6622 320.363 70.89 320.715 72.1508 320.82C73.4117 320.924 74.6809 320.78 75.8857 320.394C77.0906 320.008 78.2075 319.389 79.1725 318.571C80.1374 317.754 80.9316 316.754 81.5095 315.63C101.816 276.39 109.862 231.963 104.605 188.102C102.523 170.664 106.608 153.047 116.152 138.299C117.413 136.164 117.8 133.625 117.232 131.212C116.664 128.799 115.185 126.698 113.104 125.348C111.023 123.998 108.501 123.504 106.063 123.968C103.626 124.432 101.463 125.818 100.024 127.838C88.0062 146.329 82.8324 168.435 85.3972 190.333C90.2224 230.377 82.9007 270.946 64.3806 306.784C63.7946 307.909 63.4373 309.139 63.3292 310.403C63.2211 311.667 63.3644 312.94 63.7508 314.148C64.1372 315.357 64.7592 316.477 65.5807 317.444C66.4023 318.411 67.4073 319.206 68.5377 319.783Z" fill="#5AB943"/>
</svg>
